<svg fill="#000" version="1.1" id="Capa_1" xmlns="http://www.w3.org/2000/svg" width="800" height="800" viewBox="0 0 67.025 67.026" xml:space="preserve"><path d="m41.441 29.477 3.135 1.792 6.272-3.584-9.407-5.599z"/><path d="m60.48 18.052 2.24-4.031c1.791-3.137-3.359-6.721-5.824-8.063-2.465-1.345-8.063-4.257-9.855-.896l-3.137 5.376c-3.137-.672-6.721-1.12-10.304-1.12C15.008 9.317 0 19.398 0 31.718c0 12.318 15.008 22.398 33.6 22.398h.225c.224 2.688-2.912 7.168-7.393 9.407 17.698 0 25.761-13.216 25.761-13.216 8.959-4.032 14.783-10.752 14.783-18.592.448-5.15-2.24-9.854-6.496-13.663zM15.455 37.99c-1.792 0-3.136-1.346-3.136-3.138 0-1.792 1.344-3.136 3.136-3.136s3.136 1.344 3.136 3.136-1.566 3.138-3.136 3.138zm8.288 0c-1.792 0-3.136-1.346-3.136-3.138 0-1.792 1.344-3.136 3.136-3.136s3.136 1.344 3.136 3.136-1.344 3.138-3.136 3.138zm8.289 0c-1.792 0-3.137-1.346-3.137-3.138 0-1.792 1.345-3.136 3.137-3.136s3.136 1.344 3.136 3.136-1.344 3.138-3.136 3.138zm19.937-9.633-6.496 3.584-5.377 2.911V21.413l8.961-15.456c.447-.896 3.584 0 6.943 1.792s5.6 4.031 4.928 4.928l-8.959 15.68z"/></svg>